<svg width="18" height="18" viewBox="0 0 18 18" fill="none" xmlns="http://www.w3.org/2000/svg">
<mask id="mask0_2337_424" style="mask-type:alpha" maskUnits="userSpaceOnUse" x="0" y="0" width="18" height="18">
<rect x="0.370972" y="0.455566" width="17.28" height="17.28" fill="#D9D9D9"/>
</mask>
<g mask="url(#mask0_2337_424)">
<path d="M14.735 15.5757C13.235 15.5757 11.753 15.2487 10.289 14.5947C8.82501 13.9407 7.49301 13.0137 6.29301 11.8137C5.09301 10.6137 4.16601 9.28172 3.51201 7.81772C2.85801 6.35372 2.53101 4.87172 2.53101 3.37172C2.53101 3.15572 2.60301 2.97572 2.74701 2.83172C2.89101 2.68772 3.07101 2.61572 3.28701 2.61572H6.20301C6.37101 2.61572 6.52101 2.67272 6.65301 2.78672C6.78501 2.90072 6.86301 3.03572 6.88701 3.19172L7.35501 5.71172C7.37901 5.90372 7.37301 6.06572 7.33701 6.19772C7.30101 6.32972 7.23501 6.44372 7.13901 6.53972L5.39301 8.30372C5.63301 8.74772 5.91801 9.17672 6.24801 9.59072C6.57801 10.0047 6.94101 10.4037 7.33701 10.7877C7.70901 11.1597 8.09901 11.5047 8.50701 11.8227C8.91501 12.1407 9.34701 12.4317 9.80301 12.6957L11.495 11.0037C11.603 10.8957 11.744 10.8147 11.918 10.7607C12.092 10.7067 12.263 10.6917 12.431 10.7157L14.915 11.2197C15.083 11.2677 15.221 11.3547 15.329 11.4807C15.437 11.6067 15.491 11.7477 15.491 11.9037V14.8197C15.491 15.0357 15.419 15.2157 15.275 15.3597C15.131 15.5037 14.951 15.5757 14.735 15.5757ZM4.70901 6.93572L5.89701 5.74772L5.59101 4.05572H3.98901C4.04901 4.54772 4.13301 5.03372 4.24101 5.51372C4.34901 5.99372 4.50501 6.46772 4.70901 6.93572ZM11.153 13.3797C11.621 13.5837 12.098 13.7457 12.584 13.8657C13.07 13.9857 13.559 14.0637 14.051 14.0997V12.5157L12.359 12.1737L11.153 13.3797Z" fill="#3498DB"/>
</g>
</svg>
