<svg width="17" height="16" viewBox="0 0 17 16" fill="none" xmlns="http://www.w3.org/2000/svg">
<mask id="mask0_2414_893" style="mask-type:alpha" maskUnits="userSpaceOnUse" x="0" y="0" width="17" height="16">
<rect x="0.675049" width="16" height="16" fill="#D9D9D9"/>
</mask>
<g mask="url(#mask0_2414_893)">
<path d="M8.00846 3.33329V0.666626H9.3418V3.33329H8.00846ZM12.4418 5.16663L11.5251 4.24996L13.3918 2.33329L14.3251 3.28329L12.4418 5.16663ZM13.3418 8.66663V7.33329H16.0085V8.66663H13.3418ZM8.00846 15.3333V12.6666H9.3418V15.3333H8.00846ZM4.90846 5.13329L3.00846 3.28329L3.95846 2.34996L5.8418 4.23329L4.90846 5.13329ZM13.3751 13.6666L11.5251 11.75L12.4251 10.85L14.3251 12.6833L13.3751 13.6666ZM1.3418 8.66663V7.33329H4.00846V8.66663H1.3418ZM3.95846 13.6666L3.02513 12.7166L4.8918 10.85L5.37513 11.3L5.85846 11.7666L3.95846 13.6666ZM8.67513 12C7.56402 12 6.61958 11.6111 5.8418 10.8333C5.06402 10.0555 4.67513 9.11107 4.67513 7.99996C4.67513 6.88885 5.06402 5.9444 5.8418 5.16663C6.61958 4.38885 7.56402 3.99996 8.67513 3.99996C9.78624 3.99996 10.7307 4.38885 11.5085 5.16663C12.2862 5.9444 12.6751 6.88885 12.6751 7.99996C12.6751 9.11107 12.2862 10.0555 11.5085 10.8333C10.7307 11.6111 9.78624 12 8.67513 12ZM8.67513 10.6666C9.40846 10.6666 10.0362 10.4055 10.5585 9.88329C11.0807 9.36107 11.3418 8.73329 11.3418 7.99996C11.3418 7.26663 11.0807 6.63885 10.5585 6.11663C10.0362 5.5944 9.40846 5.33329 8.67513 5.33329C7.9418 5.33329 7.31402 5.5944 6.7918 6.11663C6.26958 6.63885 6.00846 7.26663 6.00846 7.99996C6.00846 8.73329 6.26958 9.36107 6.7918 9.88329C7.31402 10.4055 7.9418 10.6666 8.67513 10.6666Z" fill="#80BFFF"/>
</g>
</svg>
