<svg width="17" height="16" viewBox="0 0 17 16" fill="none" xmlns="http://www.w3.org/2000/svg">
<mask id="mask0_2414_890" style="mask-type:alpha" maskUnits="userSpaceOnUse" x="0" y="0" width="17" height="16">
<rect x="0.675049" width="16" height="16" fill="#F4F6F8"/>
</mask>
<g mask="url(#mask0_2414_890)">
<path d="M8.67505 14C7.00838 14 5.59172 13.4167 4.42505 12.25C3.25838 11.0833 2.67505 9.66667 2.67505 8C2.67505 6.33333 3.25838 4.91667 4.42505 3.75C5.59172 2.58333 7.00838 2 8.67505 2C8.8306 2 8.98338 2.00556 9.13338 2.01667C9.28338 2.02778 9.4306 2.04444 9.57505 2.06667C9.11949 2.38889 8.7556 2.80833 8.48338 3.325C8.21116 3.84167 8.07505 4.4 8.07505 5C8.07505 6 8.42505 6.85 9.12505 7.55C9.82505 8.25 10.675 8.6 11.675 8.6C12.2862 8.6 12.8473 8.46389 13.3584 8.19167C13.8695 7.91945 14.2862 7.55556 14.6084 7.1C14.6306 7.24444 14.6473 7.39167 14.6584 7.54167C14.6695 7.69167 14.675 7.84444 14.675 8C14.675 9.66667 14.0917 11.0833 12.925 12.25C11.7584 13.4167 10.3417 14 8.67505 14ZM8.67505 12.6667C9.65283 12.6667 10.5306 12.3972 11.3084 11.8583C12.0862 11.3194 12.6528 10.6167 13.0084 9.75C12.7862 9.80556 12.5639 9.85 12.3417 9.88333C12.1195 9.91667 11.8973 9.93333 11.675 9.93333C10.3084 9.93333 9.14449 9.45278 8.18338 8.49167C7.22227 7.53056 6.74172 6.36667 6.74172 5C6.74172 4.77778 6.75838 4.55556 6.79172 4.33333C6.82505 4.11111 6.86949 3.88889 6.92505 3.66667C6.05838 4.02222 5.3556 4.58889 4.81672 5.36667C4.27783 6.14444 4.00838 7.02222 4.00838 8C4.00838 9.28889 4.46394 10.3889 5.37505 11.3C6.28616 12.2111 7.38616 12.6667 8.67505 12.6667Z" fill="#1A7FE5"/>
</g>
</svg>
