<svg width="18" height="18" viewBox="0 0 18 18" fill="none" xmlns="http://www.w3.org/2000/svg">
<mask id="mask0_2337_434" style="mask-type:alpha" maskUnits="userSpaceOnUse" x="0" y="0" width="18" height="18">
<rect x="0.370972" y="0.535645" width="17.28" height="17.28" fill="#D9D9D9"/>
</mask>
<g mask="url(#mask0_2337_434)">
<path d="M9.01098 9.17559C9.40698 9.17559 9.74598 9.03459 10.028 8.75259C10.31 8.47059 10.451 8.13159 10.451 7.73559C10.451 7.33959 10.31 7.00059 10.028 6.71859C9.74598 6.43659 9.40698 6.29559 9.01098 6.29559C8.61498 6.29559 8.27598 6.43659 7.99398 6.71859C7.71198 7.00059 7.57098 7.33959 7.57098 7.73559C7.57098 8.13159 7.71198 8.47059 7.99398 8.75259C8.27598 9.03459 8.61498 9.17559 9.01098 9.17559ZM9.01098 14.4676C10.475 13.1236 11.561 11.9026 12.269 10.8046C12.977 9.70658 13.331 8.73158 13.331 7.87959C13.331 6.57159 12.914 5.50059 12.08 4.66659C11.246 3.83259 10.223 3.41559 9.01098 3.41559C7.79898 3.41559 6.77598 3.83259 5.94198 4.66659C5.10798 5.50059 4.69098 6.57159 4.69098 7.87959C4.69098 8.73158 5.04498 9.70658 5.75298 10.8046C6.46098 11.9026 7.54698 13.1236 9.01098 14.4676ZM9.01098 16.3756C7.07898 14.7316 5.63598 13.2046 4.68198 11.7946C3.72798 10.3846 3.25098 9.07958 3.25098 7.87959C3.25098 6.07959 3.82998 4.64559 4.98798 3.57759C6.14598 2.50959 7.48698 1.97559 9.01098 1.97559C10.535 1.97559 11.876 2.50959 13.034 3.57759C14.192 4.64559 14.771 6.07959 14.771 7.87959C14.771 9.07958 14.294 10.3846 13.34 11.7946C12.386 13.2046 10.943 14.7316 9.01098 16.3756Z" fill="#3498DB"/>
</g>
</svg>
