<svg width="73" height="52" viewBox="0 0 73 52" fill="none" xmlns="http://www.w3.org/2000/svg">
<path fill-rule="evenodd" clip-rule="evenodd" d="M3.24731 39.4855V40.3298H17.4706V24.4504L26.076 19.2871V27.0482L24.0302 28.2822V40.3298H27.0827V27.7302L34.6489 23.2164L42.5075 27.6003V40.1999H45.495V28.1198L43.4817 26.9833V5.42103L52.0221 10.3894V40.1999H66.5052V35.4588C68.1289 35.1341 69.4278 33.8676 69.4278 31.9517C69.4278 29.9708 68.0314 28.5745 65.9856 28.5745C63.9398 28.5745 62.6409 30.1656 62.6409 31.9517C62.6409 33.965 63.8424 34.9717 65.4336 35.4588V39.2906H52.9963V9.86987L42.41 3.73242V26.2689L34.6489 21.9824L27.0827 26.2689V17.631L16.399 23.7684V39.4855H3.24731ZM25.1992 28.6719L26.3033 28.1848V39.2769L25.1992 39.2582V28.6719ZM44.5208 28.6069L43.4817 28.1198V39.2906H44.5208V28.6069ZM68.3886 31.9517C68.3886 33.348 67.2521 34.4521 65.9856 34.4521C64.7192 34.4521 63.6151 33.2181 63.6151 31.9517C63.6151 30.6852 64.7841 29.5811 65.9856 29.5811C67.1871 29.5811 68.3886 30.5553 68.3886 31.9517Z" fill="#3E5974"/>
<path fill-rule="evenodd" clip-rule="evenodd" d="M34.2917 40.1999H35.1685V35.4588C37.9612 32.9259 36.6948 29.3863 34.7788 27.7626C32.5707 29.3213 31.499 33.0233 34.2917 35.4588V40.1999ZM34.7788 28.8018C33.1552 30.6852 33.1552 33.5753 34.7788 34.8093C36.2726 33.6078 36.2401 30.7177 34.7788 28.8018Z" fill="#1A7FE5"/>
<path d="M3.24731 43.739H4.54117V47.0199H6.36644V48.2213H3.24731V43.739Z" fill="#3E5974"/>
<path d="M7.29062 43.739H8.58448V47.0199H10.4097V48.2213H7.29062V43.739Z" fill="#3E5974"/>
<path d="M14.4993 45.4026C13.7599 44.3167 12.3967 44.7325 12.3505 45.934C12.3505 46.9275 13.3902 47.5744 14.4993 46.5578L15.2386 47.3665C14.6275 47.995 14.0834 48.2675 13.3209 48.2675C12.0733 48.2675 10.9874 47.1816 10.9874 45.934C10.9874 44.6863 12.0957 43.6466 13.3209 43.6466C14.222 43.6466 14.7534 43.947 15.2386 44.4553L14.4993 45.4026Z" fill="#3E5974"/>
<path fill-rule="evenodd" clip-rule="evenodd" d="M22.4472 48.2675L24.4342 43.6466H25.5895L27.5534 48.2675H26.1671L25.7974 47.3665H24.1108L23.7411 48.2675H22.4472ZM24.5036 46.373L24.9656 45.1484L25.4046 46.373H24.5036Z" fill="#3E5974"/>
<path fill-rule="evenodd" clip-rule="evenodd" d="M28.2927 48.2675V43.6466H30.4877C32.6826 43.9239 32.4515 46.9275 30.4877 46.9275H29.5404V48.2675H28.2927ZM29.5404 45.9109V44.7787H30.4183C31.0191 44.8712 30.996 45.8185 30.4183 45.9109H29.5404Z" fill="#3E5974"/>
<path d="M33.0061 48.2675V43.6466H34.323V48.2675H33.0061Z" fill="#3E5974"/>
<path d="M35.1548 43.6466V44.7787H36.4486V48.2675H37.7656V44.7787H39.0595V43.6466H35.1548Z" fill="#3E5974"/>
<path fill-rule="evenodd" clip-rule="evenodd" d="M39.3829 48.2675L41.3699 43.6466H42.5252L44.489 48.2675H43.1028L42.7331 47.3665H41.0465L40.6768 48.2675H39.3829ZM41.4392 46.373L41.9013 45.1484L42.3403 46.373H41.4392Z" fill="#3E5974"/>
<path d="M45.2284 43.7159H46.5223V46.9968H48.3475V48.1982H45.2284V43.7159Z" fill="#3E5974"/>
<path d="M56.2262 43.6466V48.2675H59.8998V47.1123H57.5663V46.4423H59.5995V45.3795H57.5663V44.7787H59.8074V43.6466H56.2262Z" fill="#3E5974"/>
<path d="M60.9626 48.2675V43.6466H62.0717L63.92 46.1188V43.6466H65.1677V48.2675H64.0587L62.2334 45.8416V48.2675H60.9626Z" fill="#3E5974"/>
<path d="M65.9532 43.5773V44.7094H67.2471V48.1982H68.564V44.7094H69.8579V43.5773H65.9532Z" fill="#3E5974"/>
<path d="M21.3382 45.4026C20.5989 44.3167 19.2357 44.7325 19.1895 45.934C19.1895 46.9275 20.2292 47.5744 21.3382 46.5578L22.0776 47.3665C21.4664 47.995 20.9223 48.2675 20.1599 48.2675C18.9122 48.2675 17.8263 47.1816 17.8263 45.934C17.8263 44.6863 18.9346 43.6466 20.1599 43.6466C21.061 43.6466 21.5924 43.947 22.0776 44.4553L21.3382 45.4026Z" fill="#1A7FE5"/>
<path fill-rule="evenodd" clip-rule="evenodd" d="M51.2356 43.6466V48.2675H52.5295V46.9968H53.2226L53.8926 48.2675H55.4175L54.424 46.7195C55.8796 45.6105 54.9554 43.6004 53.3843 43.6466H51.2356ZM52.5295 45.934V44.7787H53.3612C54.0081 44.8481 54.0544 45.7953 53.3843 45.934H52.5295Z" fill="#1A7FE5"/>
</svg>
