<svg width="18" height="18" viewBox="0 0 18 18" fill="none" xmlns="http://www.w3.org/2000/svg">
<mask id="mask0_2337_429" style="mask-type:alpha" maskUnits="userSpaceOnUse" x="0" y="0" width="18" height="18">
<rect x="0.370972" y="0.495605" width="17.28" height="17.28" fill="#D9D9D9"/>
</mask>
<g mask="url(#mask0_2337_429)">
<path d="M3.25091 14.8955C2.85491 14.8955 2.51591 14.7545 2.23391 14.4725C1.95191 14.1905 1.81091 13.8515 1.81091 13.4555V4.81549C1.81091 4.41949 1.95191 4.08049 2.23391 3.79849C2.51591 3.51649 2.85491 3.37549 3.25091 3.37549H14.7709C15.1669 3.37549 15.5059 3.51649 15.7879 3.79849C16.0699 4.08049 16.2109 4.41949 16.2109 4.81549V13.4555C16.2109 13.8515 16.0699 14.1905 15.7879 14.4725C15.5059 14.7545 15.1669 14.8955 14.7709 14.8955H3.25091ZM9.01091 9.85549L3.25091 6.25549V13.4555H14.7709V6.25549L9.01091 9.85549ZM9.01091 8.41549L14.7709 4.81549H3.25091L9.01091 8.41549ZM3.25091 6.25549V4.81549V13.4555V6.25549Z" fill="#3498DB"/>
</g>
</svg>
